<svg xmlns:dc="http://purl.org/dc/elements/1.1/" xmlns:cc="http://creativecommons.org/ns#" xmlns:rdf="http://www.w3.org/1999/02/22-rdf-syntax-ns#" xmlns:svg="http://www.w3.org/2000/svg" xmlns="http://www.w3.org/2000/svg" xmlns:xlink="http://www.w3.org/1999/xlink" id="svg689406" viewBox="0 0 413 70" height="80px" width="200px" version="1.1">
<g id="logo-group">
    <g id="logo-center" transform="translate(0 0)">
        <g id="title" style="font-style:normal;font-weight:normal;font-size:72px;line-height:1;font-family:'Brandmark Sans 30 Color';font-variant-ligatures:normal;text-align:center;text-anchor:middle" transform="translate(0 0)">
            <g id="path689415" aria-label="^S" transform=" translate(0 11.8432) scale(0.96) translate(-311.22462 46.08)"> <path class="c3" d="M88.33693,110.0787v1.29614c0,4.6084,1.08008,5.54443,5.54492,5.54443h12.16895 c4.6084,0,5.61621-1.08008,5.61621-5.54443v-0.64807c0-2.44824-0.35986-3.02429-2.37598-3.96033l-20.9541-10.00891 c-3.81592-1.87219-5.40039-4.82434-5.40039-8.85681v-0.64795c0-7.34473,3.96045-11.01697,10.94531-11.01697h12.16895 c7.34473,0,11.0166,4.03235,11.0166,11.01697v2.66418h-5.40039v-2.66418c0-4.46436-1.00781-5.61646-5.61621-5.61646H93.88185 c-4.46484,0-5.54492,1.00806-5.54492,5.61646v0.64795c0,2.37622,0.28809,2.95239,2.3042,3.96045l20.9541,10.00879 c3.67236,1.72815,5.47217,4.6084,5.47217,8.85681v0.64807c0,6.98462-3.67188,10.94495-11.0166,10.94495H93.88185 c-6.98486,0-10.94531-3.60034-10.94531-10.94495v-1.29614C82.93654,110.07869,88.33693,110.07869,88.33693,110.0787z" transform="translate(228.28808 -122.3158)" stroke-width="0" stroke-linejoin="miter" stroke-miterlimit="2" fill="#333333" stroke="#333333"></path> </g>
            <g id="path689417" aria-label="^i" transform=" translate(40.24198240000004 11.8432) scale(0.96) translate(-348.49025 46.08)"> <rect x="97.30055" y="76.23586" class="c1" width="5.40063" height="5.40039" transform="translate(251.189698 -122.315863)" stroke-width="0" stroke-linejoin="miter" stroke-miterlimit="2" fill="#666666" stroke="#666666"></rect> <rect x="97.30055" y="84.8766" class="c3" width="5.40063" height="37.44324" transform="translate(251.189698 -122.315863)" stroke-width="0" stroke-linejoin="miter" stroke-miterlimit="2" fill="#333333" stroke="#333333"></rect> </g>
            <g id="path689419" aria-label="^m" transform=" translate(50.4369776000001 19.792) scale(0.96) translate(-357.06837 37.8)"> <path class="c3" d="M80.74123,84.8766v2.3761c1.87207-1.87207,4.68042-2.73608,8.78467-2.73608 c6.62451,0,10.00879,1.94409,11.66504,5.32837c1.94409-3.67236,5.40039-5.32837,11.01709-5.32837 c11.37695,0,12.45703,5.8324,12.45703,16.92139v20.88184h-5.40063V99.78188c0-6.69666-1.65601-9.86487-6.19238-9.86487h-3.31226 c-4.53662,0-7.05664,3.16821-7.05664,8.28076v1.08008v23.04199h-5.40039V99.78188c0-6.69666-1.65625-9.86487-6.19263-9.86487 h-3.31226c-4.53638,0-7.05664,3.16821-7.05664,8.28076v24.12207h-5.40039V84.8766H80.74123z" transform="translate(281.72753 -122.31662)" stroke-width="0" stroke-linejoin="miter" stroke-miterlimit="2" fill="#333333" stroke="#333333"></path> </g>
            <g id="path689421" aria-label="^p" transform=" translate(103.7519824000001 19.792) scale(0.96) translate(-409.5215 37.8)"> <path class="c3" d="M88.26515,118.07143v12.88916h-5.40039V84.8766h5.40039v4.24841 c2.73633-2.88037,6.48047-4.6084,11.23291-4.6084c10.51294,0,17.6416,7.05652,17.6416,18.9375 c0,12.16919-7.12866,19.29773-17.6416,19.29773C94.74562,122.75185,91.00148,121.0237,88.26515,118.07143z M97.26588,116.99135 h4.68042c5.83252,0,9.79297-5.04041,9.79297-13.53723c0-8.4967-3.96045-13.53711-9.79297-13.53711h-4.68042 c-5.83252,0-9.00073,4.10437-9.00073,10.58496v5.90454C88.26515,112.88698,91.43336,116.99135,97.26588,116.99135z" transform="translate(326.65674 -122.31661)" stroke-width="0" stroke-linejoin="miter" stroke-miterlimit="2" fill="#333333" stroke="#333333"></path> </g>
            <g id="path689423" aria-label="^l" transform=" translate(140.6219824000001 11.8432) scale(0.96) translate(-446.92775 46.08)"> <path class="c3" d="M102.70119,76.23586v46.08398H97.3008V76.23586H102.70119z" transform="translate(349.62695 -122.31586)" stroke-width="0" stroke-linejoin="miter" stroke-miterlimit="2" fill="#333333" stroke="#333333"></path> </g>
            <g id="path689425" aria-label="^e" transform=" translate(150.81697760000014 19.792) scale(0.96) translate(-455.50587 37.8)"> <path class="c3" d="M83.15236,103.52614c0-12.45703,6.48059-19.00952,16.84949-19.00952s16.84949,6.55249,16.84949,19.00952 v1.44019H88.69679c0.28809,9.07275,3.38428,12.16907,9.36084,12.16907h4.53638c3.74438,0,6.55261-2.37622,8.28076-7.05664h5.40039 c-2.01611,7.99268-7.92065,12.60107-16.27332,12.60107C89.20094,122.67982,83.15236,115.47926,83.15236,103.52614z M111.16286,99.9258c-0.72021-7.4165-3.74438-10.00879-9.2168-10.00879h-3.88843c-5.47241,0-8.4967,2.59229-9.2168,10.00879 H111.16286z" transform="translate(372.35351 -122.31662)" stroke-width="0" stroke-linejoin="miter" stroke-miterlimit="2" fill="#333333" stroke="#333333"></path> </g>
            <g id="path689427" aria-label="A" transform=" translate(185.1469776000002 11.8432) scale(0.96) translate(-492.34962 46.08)"> <path class="c1" d="M107.85103,76.23584l15.84137,46.08398h-9.93686L101.01042,85.2366h-2.01617l-12.74509,37.08322H76.3123 l15.84137-46.08398H107.85103z" transform="translate(416.03732 -122.31584)" stroke-width="0" stroke-linejoin="miter" stroke-miterlimit="2" fill="#666666" stroke="#666666"></path> </g>
            <g id="path689429" aria-label="p" transform=" translate(235.5719824000001 19.792) scale(0.96) translate(-542.834 37.8)"> <path class="c1" d="M90.24513,118.07143v18.6496h-9.36084V84.87655h9.36084v4.24841 c2.73633-2.88025,6.48071-4.6084,11.23315-4.6084c10.51294,0,17.64136,8.4967,17.64136,18.93762 c0,10.72894-7.12842,19.29767-17.64136,19.29767C96.72585,122.75185,92.98146,121.0237,90.24513,118.07143z M97.87794,113.46304 h4.32031c4.89648,0,8.28076-3.74432,8.28076-10.00885s-3.38428-10.00885-8.28076-10.00885h-4.32031 c-4.89648,0-7.63281,3.02423-7.63281,7.84869v4.32031C90.24513,110.4388,92.98146,113.46304,97.87794,113.46304z" transform="translate(461.94971 -122.31656)" stroke-width="0" stroke-linejoin="miter" stroke-miterlimit="2" fill="#666666" stroke="#666666"></path> </g>
            <g id="path689431" aria-label="i" transform=" translate(278.2219824000001 11.8432) scale(0.96) translate(-584.17775 46.08)"> <rect x="95.32033" y="76.2358" class="c3" width="9.36084" height="5.7605" transform="translate(488.857422 -122.315802)" stroke-width="0" stroke-linejoin="miter" stroke-miterlimit="2" fill="#333333" stroke="#333333"></rect> <polygon class="c1" points="104.60915,122.31979 95.32033,122.31979 95.32033,84.87655 104.68117,84.87655 " transform="translate(488.857422 -122.315802)" stroke-width="0" stroke-linejoin="miter" stroke-miterlimit="2" fill="#666666" stroke="#666666"></polygon> </g>
            <g id="path689433" aria-label="^T" transform=" translate(293.1969776000001 11.8432) scale(0.96) translate(-596.69337 46.08)"> <rect x="83.36818" y="76.23581" class="c3" width="33.26709" height="5.40051" transform="translate(513.325191 -122.315809)" stroke-width="0" stroke-linejoin="miter" stroke-miterlimit="2" fill="#333333" stroke="#333333"></rect> <polygon class="c1" points="102.7383,81.63632 102.7383,122.31979 97.33742,122.31979 97.33742,87.03671 " transform="translate(513.325191 -122.315809)" stroke-width="0" stroke-linejoin="miter" stroke-miterlimit="2" fill="#666666" stroke="#666666"></polygon> </g>
            <g id="path689435" aria-label="^e" transform=" translate(325.2619824000001 19.792) scale(0.96) translate(-628.05275 37.8)"> <path class="c3" d="M83.15236,103.52614c0-12.45703,6.48059-19.00952,16.84949-19.00952s16.84949,6.55249,16.84949,19.00952 v1.44019H88.69679c0.28809,9.07275,3.38428,12.16907,9.36084,12.16907h4.53638c3.74438,0,6.55261-2.37622,8.28076-7.05664h5.40039 c-2.01611,7.99268-7.92065,12.60107-16.27332,12.60107C89.20094,122.67982,83.15236,115.47926,83.15236,103.52614z M111.16286,99.9258c-0.72021-7.4165-3.74438-10.00879-9.2168-10.00879h-3.88843c-5.47241,0-8.4967,2.59229-9.2168,10.00879 H111.16286z" transform="translate(544.90039 -122.31662)" stroke-width="0" stroke-linejoin="miter" stroke-miterlimit="2" fill="#333333" stroke="#333333"></path> </g>
            <g id="path689437" aria-label="^s" transform=" translate(361.5919824 19.792) scale(0.96) translate(-664.8965 37.8)"> <path class="c3" d="M84.59279,110.07875h5.40039c0,5.25647,2.52051,7.20056,8.49707,7.20056h2.73584 c6.26465,0,8.78516-0.14392,8.78516-5.18433c0-3.74438-5.04053-5.11255-10.729-6.76868 c-6.9126-2.16016-14.61719-3.31226-14.61719-11.30493c0.07178-8.0647,6.62451-9.50476,15.12109-9.50476 c7.63281,0,15.04932,2.44812,15.04932,11.73694h-5.40039c0-5.68848-2.59229-6.33655-8.92871-6.33655h-2.44824 c-5.25635,0-7.99268,0.43201-7.99268,3.74438c0,4.03223,4.53613,4.39233,10.22461,6.2644 c7.12891,2.01624,15.12158,3.96045,15.12158,11.30505c0,10.94495-7.63281,11.44897-14.18555,11.44897h-2.73584 C90.06544,122.67982,84.59279,119.22353,84.59279,110.07875z" transform="translate(580.30371 -122.31661)" stroke-width="0" stroke-linejoin="miter" stroke-miterlimit="2" fill="#333333" stroke="#333333"></path> </g>
            <g id="path689439" aria-label="^t" transform=" translate(397.2219824 11.8432) scale(0.96) translate(-698.92775 46.08)"> <path class="c3" d="M106.91359,122.31984h-5.04004c-5.47266,0-8.78516-3.31226-8.78516-8.78479V76.23586h5.40088v8.64075 h8.42432v5.40051h-8.42432v23.25793c0,2.80823,0.57568,3.38428,3.38428,3.38428h5.04004V122.31984z" transform="translate(605.83936 -122.31586)" stroke-width="0" stroke-linejoin="miter" stroke-miterlimit="2" fill="#333333" stroke="#333333"></path> </g>
        </g>
    </g>
</g>
</svg>